<mxfile host="app.diagrams.net" modified="2023-09-25T13:31:22.996Z" agent="Mozilla/5.0 (Windows NT 10.0; Win64; x64; rv:109.0) Gecko/20100101 Firefox/117.0" etag="kl01IWiYPiM3ID2vPAET" version="21.2.2" type="device">
  <diagram id="VGwhQFfBLTqXxNqVGkz7" name="Seite-1">
    <mxGraphModel dx="1039" dy="561" grid="1" gridSize="10" guides="1" tooltips="1" connect="1" arrows="1" fold="1" page="1" pageScale="1" pageWidth="827" pageHeight="1169" math="0" shadow="0">
      <root>
        <mxCell id="0" />
        <mxCell id="1" parent="0" />
        <mxCell id="gqjyV0LBtKqVMQzDU1m6-1" value="Testen bzw. QualitÃ¤tssicherung" style="rounded=0;whiteSpace=wrap;html=1;fontSize=12;" parent="1" vertex="1">
          <mxGeometry x="150" y="40" width="150" height="40" as="geometry" />
        </mxCell>
        <mxCell id="lZQnHMC6uHZByozSLNlq-1" value="Implementierung" style="rounded=0;whiteSpace=wrap;html=1;fontSize=12;" parent="1" vertex="1">
          <mxGeometry x="40" y="100" width="150" height="40" as="geometry" />
        </mxCell>
        <mxCell id="lZQnHMC6uHZByozSLNlq-2" value="Softwareentwurf" style="rounded=0;whiteSpace=wrap;html=1;fontSize=12;" parent="1" vertex="1">
          <mxGeometry x="100" y="150" width="150" height="40" as="geometry" />
        </mxCell>
        <mxCell id="lZQnHMC6uHZByozSLNlq-3" value="Wartung&lt;br style=&quot;font-size: 12px;&quot;&gt;(und Weiterentwicklung)" style="rounded=0;whiteSpace=wrap;html=1;fontSize=12;" parent="1" vertex="1">
          <mxGeometry x="260" y="90" width="150" height="40" as="geometry" />
        </mxCell>
        <mxCell id="lZQnHMC6uHZByozSLNlq-4" value="Anforderungsermittlung/&lt;br style=&quot;font-size: 12px;&quot;&gt;-analyse" style="rounded=0;whiteSpace=wrap;html=1;fontSize=12;" parent="1" vertex="1">
          <mxGeometry x="330" y="140" width="150" height="40" as="geometry" />
        </mxCell>
      </root>
    </mxGraphModel>
  </diagram>
</mxfile>
